<svg xmlns="http://www.w3.org/2000/svg" viewBox="0 0 1200 320" width="1200" height="320" preserveAspectRatio="xMidYMid slice">
  <defs>
    <linearGradient id="warm" x1="0" y1="0" x2="1" y2="1">
      <stop offset="0%" stop-color="#f4e8d0" />
      <stop offset="100%" stop-color="#e8c89a" />
    </linearGradient>
    <pattern id="dots" x="0" y="0" width="24" height="24" patternUnits="userSpaceOnUse">
      <circle cx="12" cy="12" r="1" fill="#8b6f47" fill-opacity="0.08" />
    </pattern>
  </defs>
  <rect width="1200" height="320" fill="url(#warm)" />
  <rect width="1200" height="320" fill="url(#dots)" />
  <text x="80" y="140" font-family="Georgia, serif" font-size="48" font-weight="700" fill="#3d2817">Baked Fresh Daily</text>
  <text x="80" y="180" font-family="Georgia, serif" font-size="20" font-style="italic" fill="#8b6f47">Sourdough · Pastries · Custom Cakes</text>
  <g transform="translate(820, 110)">
    <ellipse cx="100" cy="100" rx="110" ry="55" fill="#c9a86a" stroke="#8b6f47" stroke-width="2.5" />
    <ellipse cx="100" cy="95" rx="100" ry="48" fill="#d9bd83" stroke="#8b6f47" stroke-width="1" stroke-opacity="0.5" />
    <path d="M40 80 Q 100 60 160 80" stroke="#7a5d3a" stroke-width="2.5" fill="none" stroke-linecap="round" />
    <path d="M50 100 Q 100 80 150 100" stroke="#7a5d3a" stroke-width="2" fill="none" stroke-linecap="round" />
    <path d="M60 120 Q 100 100 140 120" stroke="#7a5d3a" stroke-width="1.5" fill="none" stroke-linecap="round" />
    <g transform="translate(-20, -40) rotate(-15)">
      <path d="M0 30 Q 20 0 50 5 Q 80 10 80 30 Q 60 38 30 38 Q 10 38 0 30 Z" fill="#dab17a" stroke="#8b6f47" stroke-width="2" />
      <path d="M10 28 Q 25 18 40 22" stroke="#7a5d3a" stroke-width="1.5" fill="none" />
      <path d="M30 30 Q 45 20 60 28" stroke="#7a5d3a" stroke-width="1.5" fill="none" />
    </g>
  </g>
  <g transform="translate(700, 240)" stroke="#8b6f47" stroke-width="1.5" stroke-linecap="round" fill="none">
    <line x1="0" y1="20" x2="0" y2="-30" />
    <g fill="#c9a86a">
      <ellipse cx="-5" cy="-25" rx="2.5" ry="5" transform="rotate(-25 -5 -25)" />
      <ellipse cx="5" cy="-25" rx="2.5" ry="5" transform="rotate(25 5 -25)" />
      <ellipse cx="-5" cy="-15" rx="2.5" ry="5" transform="rotate(-25 -5 -15)" />
      <ellipse cx="5" cy="-15" rx="2.5" ry="5" transform="rotate(25 5 -15)" />
      <ellipse cx="-5" cy="-5" rx="2.5" ry="5" transform="rotate(-25 -5 -5)" />
      <ellipse cx="5" cy="-5" rx="2.5" ry="5" transform="rotate(25 5 -5)" />
    </g>
  </g>
</svg>
