<svg width="300" height="300" viewBox="0 0 300 300" fill="none" xmlns="http://www.w3.org/2000/svg">
<path d="M55.6737 141.651C49.5357 141.651 43.8937 140.225 38.7477 137.373C33.6637 134.521 29.6027 130.553 26.5647 125.469C23.5887 120.323 22.1007 114.557 22.1007 108.171C22.1007 101.785 23.5887 96.05 26.5647 90.966C29.6027 85.882 33.6637 81.914 38.7477 79.062C43.8937 76.21 49.5357 74.784 55.6737 74.784C61.8117 74.784 67.4227 76.21 72.5067 79.062C77.6527 81.914 81.6827 85.882 84.5967 90.966C87.5727 96.05 89.0607 101.785 89.0607 108.171C89.0607 114.557 87.5727 120.323 84.5967 125.469C81.6207 130.553 77.5907 134.521 72.5067 137.373C67.4227 140.225 61.8117 141.651 55.6737 141.651ZM55.6737 127.143C60.8817 127.143 65.0357 125.407 68.1357 121.935C71.2977 118.463 72.8787 113.875 72.8787 108.171C72.8787 102.405 71.2977 97.817 68.1357 94.407C65.0357 90.935 60.8817 89.199 55.6737 89.199C50.4037 89.199 46.1877 90.904 43.0257 94.314C39.9257 97.724 38.3757 102.343 38.3757 108.171C38.3757 113.937 39.9257 118.556 43.0257 122.028C46.1877 125.438 50.4037 127.143 55.6737 127.143ZM111.021 97.755C112.881 94.903 115.206 92.671 117.996 91.059C120.786 89.385 123.886 88.548 127.296 88.548V105.381H122.925C118.957 105.381 115.981 106.249 113.997 107.985C112.013 109.659 111.021 112.635 111.021 116.913V141H95.118V89.106H111.021V97.755ZM128.945 114.96C128.945 109.628 129.937 104.947 131.921 100.917C133.967 96.887 136.726 93.787 140.198 91.617C143.67 89.447 147.545 88.362 151.823 88.362C155.233 88.362 158.333 89.075 161.123 90.501C163.975 91.927 166.207 93.849 167.819 96.267V72.18H183.722V141H167.819V133.56C166.331 136.04 164.192 138.024 161.402 139.512C158.674 141 155.481 141.744 151.823 141.744C147.545 141.744 143.67 140.659 140.198 138.489C136.726 136.257 133.967 133.126 131.921 129.096C129.937 125.004 128.945 120.292 128.945 114.96ZM167.819 115.053C167.819 111.085 166.703 107.954 164.471 105.66C162.301 103.366 159.635 102.219 156.473 102.219C153.311 102.219 150.614 103.366 148.382 105.66C146.212 107.892 145.127 110.992 145.127 114.96C145.127 118.928 146.212 122.09 148.382 124.446C150.614 126.74 153.311 127.887 156.473 127.887C159.635 127.887 162.301 126.74 164.471 124.446C166.703 122.152 167.819 119.021 167.819 115.053ZM241.355 114.216C241.355 115.704 241.262 117.254 241.076 118.866H205.085C205.333 122.09 206.356 124.57 208.154 126.306C210.014 127.98 212.277 128.817 214.943 128.817C218.911 128.817 221.67 127.143 223.22 123.795H240.146C239.278 127.205 237.697 130.274 235.403 133.002C233.171 135.73 230.35 137.869 226.94 139.419C223.53 140.969 219.717 141.744 215.501 141.744C210.417 141.744 205.891 140.659 201.923 138.489C197.955 136.319 194.855 133.219 192.623 129.189C190.391 125.159 189.275 120.447 189.275 115.053C189.275 109.659 190.36 104.947 192.53 100.917C194.762 96.887 197.862 93.787 201.83 91.617C205.798 89.447 210.355 88.362 215.501 88.362C220.523 88.362 224.987 89.416 228.893 91.524C232.799 93.632 235.837 96.639 238.007 100.545C240.239 104.451 241.355 109.008 241.355 114.216ZM225.08 110.031C225.08 107.303 224.15 105.133 222.29 103.521C220.43 101.909 218.105 101.103 215.315 101.103C212.649 101.103 210.386 101.878 208.526 103.428C206.728 104.978 205.612 107.179 205.178 110.031H225.08ZM262.858 97.755C264.718 94.903 267.043 92.671 269.833 91.059C272.623 89.385 275.723 88.548 279.133 88.548V105.381H274.762C270.794 105.381 267.818 106.249 265.834 107.985C263.85 109.659 262.858 112.635 262.858 116.913V141H246.955V89.106H262.858V97.755Z" fill="#0C090A"/>
<path d="M48.3332 211.724H69.1652V224H32.4302V158.714H48.3332V211.724ZM99.4425 224.744C94.3585 224.744 89.7705 223.659 85.6785 221.489C81.6485 219.319 78.4555 216.219 76.0995 212.189C73.8055 208.159 72.6585 203.447 72.6585 198.053C72.6585 192.721 73.8365 188.04 76.1925 184.01C78.5485 179.918 81.7725 176.787 85.8645 174.617C89.9565 172.447 94.5445 171.362 99.6285 171.362C104.713 171.362 109.301 172.447 113.393 174.617C117.485 176.787 120.709 179.918 123.065 184.01C125.421 188.04 126.599 192.721 126.599 198.053C126.599 203.385 125.39 208.097 122.972 212.189C120.616 216.219 117.361 219.319 113.207 221.489C109.115 223.659 104.527 224.744 99.4425 224.744ZM99.4425 210.98C102.481 210.98 105.054 209.864 107.162 207.632C109.332 205.4 110.417 202.207 110.417 198.053C110.417 193.899 109.363 190.706 107.255 188.474C105.209 186.242 102.667 185.126 99.6285 185.126C96.5285 185.126 93.9555 186.242 91.9095 188.474C89.8635 190.644 88.8405 193.837 88.8405 198.053C88.8405 202.207 89.8325 205.4 91.8165 207.632C93.8625 209.864 96.4045 210.98 99.4425 210.98ZM130.943 198.053C130.943 192.659 132.028 187.947 134.198 183.917C136.43 179.887 139.499 176.787 143.405 174.617C147.373 172.447 151.899 171.362 156.983 171.362C163.493 171.362 168.918 173.067 173.258 176.477C177.66 179.887 180.543 184.692 181.907 190.892H164.981C163.555 186.924 160.796 184.94 156.704 184.94C153.79 184.94 151.465 186.087 149.729 188.381C147.993 190.613 147.125 193.837 147.125 198.053C147.125 202.269 147.993 205.524 149.729 207.818C151.465 210.05 153.79 211.166 156.704 211.166C160.796 211.166 163.555 209.182 164.981 205.214H181.907C180.543 211.29 177.66 216.064 173.258 219.536C168.856 223.008 163.431 224.744 156.983 224.744C151.899 224.744 147.373 223.659 143.405 221.489C139.499 219.319 136.43 216.219 134.198 212.189C132.028 208.159 130.943 203.447 130.943 198.053ZM186.322 197.96C186.322 192.628 187.314 187.947 189.298 183.917C191.344 179.887 194.103 176.787 197.575 174.617C201.047 172.447 204.922 171.362 209.2 171.362C212.858 171.362 216.051 172.106 218.779 173.594C221.569 175.082 223.708 177.035 225.196 179.453V172.106H241.099V224H225.196V216.653C223.646 219.071 221.476 221.024 218.686 222.512C215.958 224 212.765 224.744 209.107 224.744C204.891 224.744 201.047 223.659 197.575 221.489C194.103 219.257 191.344 216.126 189.298 212.096C187.314 208.004 186.322 203.292 186.322 197.96ZM225.196 198.053C225.196 194.085 224.08 190.954 221.848 188.66C219.678 186.366 217.012 185.219 213.85 185.219C210.688 185.219 207.991 186.366 205.759 188.66C203.589 190.892 202.504 193.992 202.504 197.96C202.504 201.928 203.589 205.09 205.759 207.446C207.991 209.74 210.688 210.887 213.85 210.887C217.012 210.887 219.678 209.74 221.848 207.446C224.08 205.152 225.196 202.021 225.196 198.053ZM267.577 155.18V224H251.674V155.18H267.577Z" fill="#009F4E"/>
</svg>
